HIERARCHY
ROOT Hips
{
  OFFSET 5.84602e-005 68.8428 3.50346
  CHANNELS 6 Xposition Yposition Zposition Zrotation Xrotation Yrotation
  JOINT Spine
  {
    OFFSET 0 8.597 -4.6522
    CHANNELS 3 Zrotation Xrotation Yrotation
    JOINT Spine1
    {
      OFFSET 0 7.8454 0.4098
      CHANNELS 3 Zrotation Xrotation Yrotation
      JOINT Spine2
      {
        OFFSET 0 9.7078 -2.1609
        CHANNELS 3 Zrotation Xrotation Yrotation
        JOINT Neck
        {
          OFFSET 0 21.8761 -0.4549
          CHANNELS 3 Zrotation Xrotation Yrotation
          JOINT Head
          {
            OFFSET 0 12.3537 3.3602
            CHANNELS 3 Zrotation Xrotation Yrotation
            End Site
            {
              OFFSET 0.0001 18.9506 0.5657
            }
          }
        }
        JOINT LeftShoulder
        {
          OFFSET 2.2086 21.1115 7.2329
          CHANNELS 3 Zrotation Xrotation Yrotation
          JOINT LeftArm
          {
            OFFSET 13.1193 3.0282 -4.8998
            CHANNELS 3 Zrotation Xrotation Yrotation
            JOINT LeftForeArm
            {
              OFFSET 27.4081 -0.0973053 -0.2375
              CHANNELS 3 Zrotation Xrotation Yrotation
              JOINT LeftHand
              {
                OFFSET 22.8641 0.0662994 -0.1369
                CHANNELS 3 Zrotation Xrotation Yrotation
                JOINT LeftHandIndex1
                {
                  OFFSET 8.8614 0.775009 2.4612
                  CHANNELS 3 Zrotation Xrotation Yrotation
                  JOINT LeftHandIndex2
                  {
                    OFFSET 3.3146 -0.808304 0.5841
                    CHANNELS 3 Zrotation Xrotation Yrotation
                    JOINT LeftHandIndex3
                    {
                      OFFSET 2.2628 -0.552002 0.3989
                      CHANNELS 3 Zrotation Xrotation Yrotation
                      End Site
                      {
                        OFFSET 1.6102 -0.4807 0.2612
                      }
                    }
                  }
                }
                JOINT LeftHandMiddle1
                {
                  OFFSET 8.9937 0.895004 0.2143
                  CHANNELS 3 Zrotation Xrotation Yrotation
                  JOINT LeftHandMiddle2
                  {
                    OFFSET 4.0984 0.0113983 -0.0242
                    CHANNELS 3 Zrotation Xrotation Yrotation
                    JOINT LeftHandMiddle3
                    {
                      OFFSET 2.2716 0.00689697 -0.0138001
                      CHANNELS 3 Zrotation Xrotation Yrotation
                      End Site
                      {
                        OFFSET 2.0404 -0.1441 0.0027
                      }
                    }
                  }
                }
                JOINT LeftHandRing1
                {
                  OFFSET 8.5234 0.597198 -2.0164
                  CHANNELS 3 Zrotation Xrotation Yrotation
                  JOINT LeftHandRing2
                  {
                    OFFSET 3.7188 -0.188293 -0.2328
                    CHANNELS 3 Zrotation Xrotation Yrotation
                    JOINT LeftHandRing3
                    {
                      OFFSET 2.1191 -0.106598 -0.1332
                      CHANNELS 3 Zrotation Xrotation Yrotation
                      End Site
                      {
                        OFFSET 1.8737 -0.2304 -0.0886
                      }
                    }
                  }
                }
                JOINT LeftHandPinky1
                {
                  OFFSET 7.9094 -0.601089 -3.4825
                  CHANNELS 3 Zrotation Xrotation Yrotation
                  JOINT LeftHandPinky2
                  {
                    OFFSET 2.2874 -0.477005 -0.6314
                    CHANNELS 3 Zrotation Xrotation Yrotation
                    JOINT LeftHandPinky3
                    {
                      OFFSET 1.6774 -0.349396 -0.4633
                      CHANNELS 3 Zrotation Xrotation Yrotation
                      End Site
                      {
                        OFFSET 1.4888 -0.4091 -0.3416
                      }
                    }
                  }
                }
                JOINT LeftHandThumb1
                {
                  OFFSET 1.833 -1.3875 1.3896
                  CHANNELS 3 Zrotation Xrotation Yrotation
                  JOINT LeftHandThumb2
                  {
                    OFFSET 3.4129 -1.121 2.5732
                    CHANNELS 3 Zrotation Xrotation Yrotation
                    JOINT LeftHandThumb3
                    {
                      OFFSET 2.2474 -0.804199 1.6192
                      CHANNELS 3 Zrotation Xrotation Yrotation
                      End Site
                      {
                        OFFSET 1.6527 -0.5689 1.1317
                      }
                    }
                  }
                }
              }
            }
          }
        }
        JOINT RightShoulder
        {
          OFFSET -2.2086 21.1115 7.2329
          CHANNELS 3 Zrotation Xrotation Yrotation
          JOINT RightArm
          {
            OFFSET -13.1216 3.0287 -4.9007
            CHANNELS 3 Zrotation Xrotation Yrotation
            JOINT RightForeArm
            {
              OFFSET -27.4081 -0.0973053 -0.2375
              CHANNELS 3 Zrotation Xrotation Yrotation
              JOINT RightHand
              {
                OFFSET -22.8641 0.0664063 -0.1369
                CHANNELS 3 Zrotation Xrotation Yrotation
                JOINT RightHandIndex1
                {
                  OFFSET -8.8614 0.774994 2.4612
                  CHANNELS 3 Zrotation Xrotation Yrotation
                  JOINT RightHandIndex2
                  {
                    OFFSET -3.3146 -0.808304 0.5841
                    CHANNELS 3 Zrotation Xrotation Yrotation
                    JOINT RightHandIndex3
                    {
                      OFFSET -2.2628 -0.552002 0.3989
                      CHANNELS 3 Zrotation Xrotation Yrotation
                      End Site
                      {
                        OFFSET -1.6102 -0.4807 0.2612
                      }
                    }
                  }
                }
                JOINT RightHandMiddle1
                {
                  OFFSET -8.9937 0.894989 0.2143
                  CHANNELS 3 Zrotation Xrotation Yrotation
                  JOINT RightHandMiddle2
                  {
                    OFFSET -4.0984 0.0113983 -0.0242
                    CHANNELS 3 Zrotation Xrotation Yrotation
                    JOINT RightHandMiddle3
                    {
                      OFFSET -2.2716 0.00691223 -0.0138001
                      CHANNELS 3 Zrotation Xrotation Yrotation
                      End Site
                      {
                        OFFSET -2.0404 -0.1441 0.0027
                      }
                    }
                  }
                }
                JOINT RightHandRing1
                {
                  OFFSET -8.5234 0.597198 -2.0164
                  CHANNELS 3 Zrotation Xrotation Yrotation
                  JOINT RightHandRing2
                  {
                    OFFSET -3.7188 -0.188309 -0.2328
                    CHANNELS 3 Zrotation Xrotation Yrotation
                    JOINT RightHandRing3
                    {
                      OFFSET -2.1191 -0.106598 -0.1332
                      CHANNELS 3 Zrotation Xrotation Yrotation
                      End Site
                      {
                        OFFSET -1.8737 -0.2304 -0.0886
                      }
                    }
                  }
                }
                JOINT RightHandPinky1
                {
                  OFFSET -7.9094 -0.601105 -3.4825
                  CHANNELS 3 Zrotation Xrotation Yrotation
                  JOINT RightHandPinky2
                  {
                    OFFSET -2.2874 -0.477005 -0.6314
                    CHANNELS 3 Zrotation Xrotation Yrotation
                    JOINT RightHandPinky3
                    {
                      OFFSET -1.6774 -0.349396 -0.4633
                      CHANNELS 3 Zrotation Xrotation Yrotation
                      End Site
                      {
                        OFFSET -1.4888 -0.4091 -0.3416
                      }
                    }
                  }
                }
                JOINT RightHandThumb1
                {
                  OFFSET -1.833 -1.38751 1.3896
                  CHANNELS 3 Zrotation Xrotation Yrotation
                  JOINT RightHandThumb2
                  {
                    OFFSET -3.41299 -1.12099 2.5732
                    CHANNELS 3 Zrotation Xrotation Yrotation
                    JOINT RightHandThumb3
                    {
                      OFFSET -2.24741 -0.804108 1.6192
                      CHANNELS 3 Zrotation Xrotation Yrotation
                      End Site
                      {
                        OFFSET -1.6527 -0.5689 1.1317
                      }
                    }
                  }
                }
              }
            }
          }
        }
      }
    }
  }
  JOINT RightUpLeg
  {
    OFFSET -9.1966 3.8861 -0.7581
    CHANNELS 3 Zrotation Xrotation Yrotation
    JOINT RightLeg
    {
      OFFSET -0.7359 -41.0265 0
      CHANNELS 3 Zrotation Xrotation Yrotation
      JOINT RightFoot
      {
        OFFSET 0 -40.2855 0
        CHANNELS 3 Zrotation Xrotation Yrotation
        JOINT RightToeBase
        {
          OFFSET 0 -5.6122 11.7359
          CHANNELS 3 Zrotation Xrotation Yrotation
          End Site
          {
            OFFSET 0 0 7.8731
          }
        }
      }
    }
  }
  JOINT LeftUpLeg
  {
    OFFSET 9.1965 3.8864 -0.7581
    CHANNELS 3 Zrotation Xrotation Yrotation
    JOINT LeftLeg
    {
      OFFSET 0.7359 -41.0268 0
      CHANNELS 3 Zrotation Xrotation Yrotation
      JOINT LeftFoot
      {
        OFFSET 0 -40.2855 0
        CHANNELS 3 Zrotation Xrotation Yrotation
        JOINT LeftToeBase
        {
          OFFSET 0 -5.6122 11.7359
          CHANNELS 3 Zrotation Xrotation Yrotation
          End Site
          {
            OFFSET 0 0 7.8731
          }
        }
      }
    }
  }
}
MOTION
Frames:	5
Frame Time:	0.0333333
0.00334874 4.54724 5.16416 -180 -74.9926 -180 -0.266142 5.24914 -0.357451 -0.502417 10.4998 -0.694698 -0.502416 10.4998 -0.694697 0.94374 -4.08945 -0.032769 -7.57573e-008 15.2653 2.19129e-007 -1.81513 -8.90688 -11.0753 -13.8097 -16.3719 -49.4095 -41.9849 -15.1214 -54.4704 -11.5588 -11.2172 -27.4501 -0 0 3.18055e-015 7.95139e-015 -3.18055e-015 3.18055e-015 7.95139e-015 -3.18055e-015 1.90833e-014 -0 0 3.18055e-015 -0.0146223 -9.26029e-005 -2.11556e-006 -6.36111e-015 3.18055e-015 -3.18055e-015 -0 0 3.18055e-015 -0.0187282 -0.00117886 6.42805e-005 -4.77083e-015 3.18055e-015 -3.18055e-015 -0 0 3.18055e-015 -0.0122504 -0.00324135 0.000672986 1.74931e-014 1.27222e-014 1.59028e-014 -0 0 3.18055e-015 7.95139e-015 -3.18055e-015 3.18055e-015 7.95139e-015 -3.18055e-015 1.90833e-014 19.876 -4.44016 21.7227 51.4647 19.6992 21.0598 35.1522 -36.5619 22.9285 40.8611 21.4892 10.8669 -3.17801e-030 1.90833e-014 9.54166e-015 1.59028e-015 3.18055e-015 4.77083e-015 -4.77083e-015 1.59028e-014 6.36111e-015 -3.17801e-030 1.90833e-014 9.54166e-015 0.0149948 -9.21362e-005 2.09908e-006 -7.95139e-015 0 -1.59028e-015 -3.17801e-030 1.90833e-014 9.54166e-015 0.0190072 -0.00119627 -5.95677e-005 3.76039e-007 -1.82239e-006 -6.58119e-007 -3.17801e-030 1.90833e-014 9.54166e-015 0.0122839 -0.00324941 -0.000677873 -1.74931e-014 3.18055e-015 1.90833e-014 -3.17801e-030 1.90833e-014 9.54166e-015 1.59028e-015 3.18055e-015 4.77083e-015 -4.77083e-015 1.59028e-014 6.36111e-015 -13.336 -24.9098 -15.2694 -171.93 64.7509 170.353 -11.2608 4.24099 0.245643 1.39906e-008 8.5217e-007 8.42332e-007 17.0659 -33.8122 20.5563 172.929 49.2363 -170.39 13.5262 2.94961 0.461283 -2.65679e-008 1.96293e-009 1.4626e-009 
0.00334797 4.54724 5.16416 -180 -74.9926 -180 -0.26593 5.29059 -0.358856 -0.501642 10.5827 -0.697417 -0.501642 10.5827 -0.697417 0.943591 -3.8821 -0.036234 3.284e-007 15.5144 -1.72876e-007 -1.69737 -9.10472 -11.1012 -13.8097 -16.3719 -49.4095 -41.9849 -15.1214 -54.4704 -11.5635 -11.3025 -27.5386 -2.32284e-007 3.45667e-007 7.40263e-007 -2.32284e-007 3.45667e-007 7.40263e-007 -2.32284e-007 3.45667e-007 7.40263e-007 -2.32284e-007 3.45667e-007 7.40263e-007 -0.0146011 -9.0383e-005 -3.00865e-006 -2.32295e-007 3.45573e-007 7.40307e-007 -2.32284e-007 3.45667e-007 7.40263e-007 -0.0187849 -0.00118048 5.82471e-005 -2.32291e-007 3.45545e-007 7.40322e-007 -2.32284e-007 3.45667e-007 7.40263e-007 -0.0122957 -0.0032592 0.000681544 -3.14784e-007 -7.58181e-007 1.2413e-006 -2.32284e-007 3.45667e-007 7.40263e-007 -2.32284e-007 3.45667e-007 7.40263e-007 -2.32284e-007 3.45667e-007 7.40263e-007 19.8633 -4.64069 21.797 51.4142 19.7211 20.8406 35.1522 -36.5619 22.9285 41.1084 21.408 9.97214 1.11319e-014 3.18055e-015 -0 -3.92518e-007 1.84519e-006 7.79949e-007 -2.64834e-031 -3.18055e-015 -4.77083e-015 1.11319e-014 3.18055e-015 -0 0.0149814 -8.83632e-005 3.02947e-006 -1.39873e-006 1.12204e-006 5.37305e-007 1.11319e-014 3.18055e-015 -0 0.0190004 -0.00119652 -6.12959e-005 -1.39819e-006 1.12191e-006 5.37271e-007 1.11319e-014 3.18055e-015 -0 0.0122863 -0.00325077 -0.000675337 4.77083e-015 6.36111e-015 4.77083e-015 1.11319e-014 3.18055e-015 -0 -3.92518e-007 1.84519e-006 7.79949e-007 -2.64834e-031 -3.18055e-015 -4.77083e-015 -13.1376 -24.9423 -15.0659 -171.93 64.7507 170.353 -11.0633 4.2619 0.132568 -9.19116e-008 8.43811e-007 8.52441e-007 16.7443 -33.8736 20.2444 172.929 49.2361 -170.388 13.2395 2.97206 0.579597 -2.65679e-008 1.96297e-009 1.46264e-009 
0.00334795 4.54725 5.16416 -180 -74.9926 -180 -0.265713 5.32832 -0.360121 -0.500888 10.6582 -0.699868 -0.500889 10.6582 -0.699867 0.943499 -3.69255 -0.0393838 -3.27239e-007 15.7409 1.44889e-007 -1.59023 -9.2848 -11.1244 -13.8097 -16.3719 -49.4094 -41.9849 -15.1214 -54.4704 -11.5679 -11.3801 -27.6192 4.77083e-015 -9.54166e-015 3.18055e-015 1.11319e-014 -3.18055e-015 -6.36111e-015 1.59028e-015 0 -9.54166e-015 4.77083e-015 -9.54166e-015 3.18055e-015 -0.0146212 -9.15113e-005 -2.73998e-007 4.77083e-015 -3.18055e-015 1.27222e-014 4.77083e-015 -9.54166e-015 3.18055e-015 -0.0187207 -0.00117604 6.48211e-005 -6.36111e-015 0 -6.36111e-015 4.77083e-015 -9.54166e-015 3.18055e-015 -0.0123133 -0.00326423 0.000680514 -3.18055e-015 0 3.18055e-015 4.77083e-015 -9.54166e-015 3.18055e-015 1.11319e-014 -3.18055e-015 -6.36111e-015 1.59028e-015 0 -9.54166e-015 19.8518 -4.82318 21.8645 51.3682 19.7413 20.6411 35.1522 -36.5619 22.9285 41.3325 21.3311 9.15783 -1.08789e-006 9.15578e-007 1.19376e-006 2.69943e-007 -3.08715e-006 -6.8081e-007 1.76556e-031 6.36111e-015 -1.59028e-015 -1.08789e-006 9.15578e-007 1.19376e-006 0.0149969 -8.98473e-005 2.52922e-007 -1.59028e-015 0 -0 -1.08789e-006 9.15578e-007 1.19376e-006 0.0189971 -0.00119342 -6.01023e-005 0 0 -0 -1.08789e-006 9.15578e-007 1.19376e-006 0.0122781 -0.00324878 -0.000676969 -3.18055e-015 0 -0 -1.08789e-006 9.15578e-007 1.19376e-006 2.69943e-007 -3.08715e-006 -6.8081e-007 1.76556e-031 6.36111e-015 -1.59028e-015 -12.957 -24.9708 -14.8807 -171.93 64.7509 170.352 -10.8835 4.28049 0.0296066 2.11813e-007 1.67669e-008 -2.02665e-008 16.4515 -33.9275 19.9603 172.928 49.2366 -170.385 12.9786 2.99207 0.687362 2.65679e-008 -1.96299e-009 -1.46267e-009 
0.00334793 4.54725 5.16416 -180 -74.9926 -180 -0.265327 5.36608 -0.36118 -0.499811 10.7337 -0.701921 -0.499812 10.7337 -0.701922 0.94344 -3.50445 -0.0425363 -2.2998e-007 15.9675 2.29578e-008 -1.4831 -9.46491 -11.1472 -13.8097 -16.3719 -49.4095 -41.9849 -15.1214 -54.4704 -11.5723 -11.4577 -27.6997 1.42756e-007 -1.45221e-006 -2.46526e-007 4.64617e-007 -6.89357e-007 -1.48134e-006 2.32308e-007 -3.44678e-007 -7.40669e-007 1.42756e-007 -1.45221e-006 -2.46526e-007 -0.0146154 -9.20498e-005 5.37699e-008 1.41705e-007 -1.45218e-006 -2.46711e-007 1.42756e-007 -1.45221e-006 -2.46526e-007 -0.0188134 -0.00118651 5.79759e-005 2.32315e-007 -3.44556e-007 -7.40728e-007 1.42756e-007 -1.45221e-006 -2.46526e-007 -0.0122189 -0.00323575 0.000672544 2.32295e-007 -3.44598e-007 -7.40712e-007 1.42756e-007 -1.45221e-006 -2.46526e-007 4.64617e-007 -6.89357e-007 -1.48134e-006 2.32308e-007 -3.44678e-007 -7.40669e-007 19.8406 -5.00571 21.9321 51.3223 19.7616 20.4417 35.1522 -36.5619 22.9285 41.5555 21.2511 8.34356 1.76837e-006 6.5985e-007 -4.16774e-007 -4.77083e-015 -3.18055e-015 -1.59028e-015 -7.95139e-015 -9.54166e-015 -4.77083e-015 1.76837e-006 6.5985e-007 -4.16774e-007 0.0150062 -9.33675e-005 1.93954e-006 1.76944e-006 6.59789e-007 -4.16862e-007 1.76837e-006 6.5985e-007 -4.16774e-007 0.0189831 -0.00118535 -5.86969e-005 -4.77083e-015 3.18055e-015 -4.77083e-015 1.76837e-006 6.5985e-007 -4.16774e-007 0.0122686 -0.00324471 -0.000677902 -4.77083e-015 -1.59028e-014 -3.18055e-015 1.76837e-006 6.5985e-007 -4.16774e-007 -4.77083e-015 -3.18055e-015 -1.59028e-015 -7.95139e-015 -9.54166e-015 -4.77083e-015 -12.7762 -24.999 -14.6953 -171.93 64.7509 170.352 -10.7037 4.29887 -0.0734237 5.96354e-016 1.59028e-015 1.59028e-015 16.1578 -33.9808 19.6755 172.929 49.2364 -170.383 12.7176 3.01148 0.795253 -1.18067e-007 -4.2077e-007 -8.48662e-007 
0.00334791 4.54725 5.16416 -180 -74.9926 -180 -0.264716 5.40385 -0.361945 -0.498308 10.8092 -0.703406 -0.498307 10.8092 -0.703406 0.9434 -3.31563 -0.0456976 5.12363e-007 16.1941 -2.30174e-007 -1.37598 -9.64506 -11.1698 -13.8097 -16.3719 -49.4095 -41.9849 -15.1214 -54.4704 -11.5769 -11.5353 -27.7804 6.36111e-015 3.18055e-015 -0 6.36111e-015 -3.18055e-015 -6.36111e-015 3.18055e-015 -3.18055e-015 -9.54166e-015 6.36111e-015 3.18055e-015 -0 -0.0146259 -9.06066e-005 -1.57241e-006 6.36111e-015 -9.54166e-015 -3.18055e-015 6.36111e-015 3.18055e-015 -0 -0.0187533 -0.00117691 6.18314e-005 3.18055e-015 0 -3.18055e-015 6.36111e-015 3.18055e-015 -0 -0.0122587 -0.00324699 0.000676644 3.18055e-015 -3.18055e-015 1.59028e-014 6.36111e-015 3.18055e-015 -0 6.36111e-015 -3.18055e-015 -6.36111e-015 3.18055e-015 -3.18055e-015 -9.54166e-015 19.8296 -5.18821 21.9996 51.2765 19.7821 20.2422 35.1522 -36.5619 22.9285 41.7773 21.1682 7.52944 -4.77083e-015 0 -1.59028e-015 -6.36111e-015 -3.18055e-015 3.18055e-015 -2.64834e-031 3.18055e-015 4.77083e-015 -4.77083e-015 0 -1.59028e-015 0.0150113 -9.24349e-005 8.23916e-007 -2.38542e-014 -6.36111e-015 1.43125e-014 -4.77083e-015 0 -1.59028e-015 0.019019 -0.0011938 -5.94846e-005 -7.70783e-007 -2.23173e-006 3.00825e-007 -4.77083e-015 0 -1.59028e-015 0.0122679 -0.00325107 -0.000676829 3.18055e-015 -3.18055e-015 -1.59028e-015 -4.77083e-015 0 -1.59028e-015 -6.36111e-015 -3.18055e-015 3.18055e-015 -2.64834e-031 3.18055e-015 4.77083e-015 -12.5952 -25.0265 -14.5098 -171.93 64.751 170.351 -10.5238 4.31683 -0.176544 3.97569e-016 3.18055e-015 3.18055e-015 15.8636 -34.0328 19.3901 172.929 49.2364 -170.38 12.4565 3.03045 0.903251 -5.16485e-008 -4.25664e-007 -8.52326e-007 
